M48
; DRILL file {KiCad 5.1.4-e60b266~84~ubuntu18.04.1} date Sat 02 Nov 2019 11:50:48 AM EDT
; FORMAT={-:-/ absolute / inch / decimal}
; #@! TF.CreationDate,2019-11-02T11:50:48-04:00
; #@! TF.GenerationSoftware,Kicad,Pcbnew,5.1.4-e60b266~84~ubuntu18.04.1
FMAT,2
INCH
T1C0.0295
T2C0.0315
T3C0.0394
T4C0.0433
T5C0.0472
T6C0.0591
T7C0.1063
%
G90
G05
T1
X1.5433Y0.5815
X1.7402Y0.689
X1.7402Y0.4921
T2
X1.9606Y0.5236
X2.1606Y0.5236
X1.1772Y1.2559
X1.1772Y0.7559
X2.4811Y0.315
X2.6811Y0.315
T3
X0.3543Y2.9882
X0.4543Y2.9882
X0.5543Y2.9882
X0.6543Y2.9882
X2.9213Y1.3953
X2.9213Y1.2953
X2.9213Y1.1953
X2.9213Y1.0953
X2.9213Y0.9953
X2.9213Y0.8953
X2.9213Y0.7953
X2.9213Y0.6953
X2.9213Y0.5953
X2.9213Y0.4953
X2.9213Y0.3953
X2.9213Y0.2953
X0.8425Y1.315
X0.8425Y1.215
X0.8425Y1.115
X0.8425Y1.015
X0.8425Y0.915
X0.4654Y1.7874
X0.5654Y1.7874
X0.6654Y1.7874
X0.6339Y1.2181
X0.6339Y1.1181
X1.1772Y2.0512
X1.1772Y1.9512
X1.1772Y1.8512
X1.1772Y1.7512
X1.1772Y1.6512
X1.1772Y1.5512
X2.3399Y2.1573
X2.3399Y2.0573
X2.3399Y1.9573
X2.3399Y1.8573
X2.3399Y1.7573
X2.3399Y1.6573
X2.3399Y1.5573
X2.3399Y1.4573
X2.3399Y1.3573
X2.3399Y1.2573
X2.3399Y1.1573
X2.3399Y1.0573
X2.3399Y0.9573
X2.3399Y0.8573
X1.7399Y2.1573
X1.7399Y2.0573
X1.7399Y1.9573
X1.7399Y1.8573
X1.7399Y1.7573
X1.7399Y1.6573
X1.7399Y1.5573
X1.7399Y1.4573
X1.7399Y1.3573
X1.7399Y1.2573
X1.7399Y1.1573
X1.7399Y1.0573
X1.7399Y0.9573
X1.7399Y0.8573
X2.685Y2.5098
X2.685Y2.4098
X2.685Y2.3098
X2.685Y2.2098
X2.685Y2.1098
X2.685Y2.0098
X2.685Y1.9098
X2.685Y1.8098
X2.685Y1.7098
T4
X2.4339Y0.626
X2.5339Y0.626
X2.6339Y0.626
T5
X0.7717Y0.2953
X0.9094Y0.2953
X1.0472Y0.2953
X2.1339Y2.5276
X2.2717Y2.5276
X2.4094Y2.5276
X0.5236Y2.5709
X0.5236Y2.4331
X0.5236Y2.2953
X1.0197Y2.563
X1.1575Y2.563
X1.374Y2.5709
X1.5118Y2.5709
T6
X0.2402Y1.7953
X0.3543Y2.0906
X0.4291Y1.374
X0.6457Y0.8858
X0.7402Y2.5315
X0.8543Y2.0748
X0.9055Y1.7047
X0.9567Y1.4843
X1.0039Y1.0906
X1.1772Y2.2795
X1.2835Y0.437
X1.3701Y1.622
X1.4173Y0.5512
X1.4646Y2.3189
X1.6063Y1.2244
X1.9921Y2.6654
X2.4961Y2.2126
X2.7205Y1.5315
X2.8661Y2.5827
X3.3622Y2.5551
T7
X3.5315Y0.248
X0.3031Y0.248
X3.5315Y3.0039
T0
M30
