G04 #@! TF.GenerationSoftware,KiCad,Pcbnew,5.1.4-e60b266~84~ubuntu18.04.1*
G04 #@! TF.CreationDate,2019-09-29T09:52:18-04:00*
G04 #@! TF.ProjectId,hotspot,686f7473-706f-4742-9e6b-696361645f70,rev?*
G04 #@! TF.SameCoordinates,Original*
G04 #@! TF.FileFunction,Legend,Top*
G04 #@! TF.FilePolarity,Positive*
%FSLAX46Y46*%
G04 Gerber Fmt 4.6, Leading zero omitted, Abs format (unit mm)*
G04 Created by KiCad (PCBNEW 5.1.4-e60b266~84~ubuntu18.04.1) date 2019-09-29 09:52:18*
%MOMM*%
%LPD*%
G04 APERTURE LIST*
%ADD10C,0.120000*%
%ADD11C,0.150000*%
G04 APERTURE END LIST*
D10*
X31690000Y-17780000D02*
X34350000Y-17780000D01*
X31690000Y-17780000D02*
X31690000Y-25460000D01*
X31690000Y-25460000D02*
X34350000Y-25460000D01*
X34350000Y-17780000D02*
X34350000Y-25460000D01*
X34350000Y-15180000D02*
X34350000Y-16510000D01*
X33020000Y-15180000D02*
X34350000Y-15180000D01*
X13910000Y-19050000D02*
X16570000Y-19050000D01*
X13910000Y-19050000D02*
X13910000Y-24190000D01*
X13910000Y-24190000D02*
X16570000Y-24190000D01*
X16570000Y-19050000D02*
X16570000Y-24190000D01*
X16570000Y-16450000D02*
X16570000Y-17780000D01*
X15240000Y-16450000D02*
X16570000Y-16450000D01*
X-2694721Y-18670264D02*
G75*
G02X-2950000Y-17780000I1424721J890264D01*
G01*
X-379807Y-19205505D02*
G75*
G02X-2161000Y-19205000I-890193J1425505D01*
G01*
X155358Y-16890106D02*
G75*
G02X170000Y-18646000I-1425358J-889894D01*
G01*
X-2159894Y-16354642D02*
G75*
G02X-404000Y-16340000I889894J-1425358D01*
G01*
X-2950099Y-17808674D02*
G75*
G02X-2710000Y-16914000I1680099J28674D01*
G01*
X410000Y-21280000D02*
G75*
G03X410000Y-21280000I-1680000J0D01*
G01*
X-5370000Y-15970000D02*
X-5370000Y-23090000D01*
X-4270000Y-15970000D02*
X-4270000Y-23090000D01*
X1890000Y-15970000D02*
X1890000Y-23090000D01*
X-5830000Y-15970000D02*
X-5830000Y-23090000D01*
X1890000Y-15970000D02*
X-5830000Y-15970000D01*
X1890000Y-23090000D02*
X-5830000Y-23090000D01*
X-201000Y-22555000D02*
X-329000Y-22426000D01*
X-2451000Y-20305000D02*
X-2544000Y-20211000D01*
X5000Y-22350000D02*
X-89000Y-22256000D01*
X-2211000Y-20135000D02*
X-2339000Y-20006000D01*
X-5430000Y-15730000D02*
X-6070000Y-15730000D01*
X-6070000Y-15730000D02*
X-6070000Y-16130000D01*
D11*
X32686666Y-13192380D02*
X32686666Y-13906666D01*
X32639047Y-14049523D01*
X32543809Y-14144761D01*
X32400952Y-14192380D01*
X32305714Y-14192380D01*
X33686666Y-14192380D02*
X33115238Y-14192380D01*
X33400952Y-14192380D02*
X33400952Y-13192380D01*
X33305714Y-13335238D01*
X33210476Y-13430476D01*
X33115238Y-13478095D01*
X14906666Y-14462380D02*
X14906666Y-15176666D01*
X14859047Y-15319523D01*
X14763809Y-15414761D01*
X14620952Y-15462380D01*
X14525714Y-15462380D01*
X15287619Y-14462380D02*
X15906666Y-14462380D01*
X15573333Y-14843333D01*
X15716190Y-14843333D01*
X15811428Y-14890952D01*
X15859047Y-14938571D01*
X15906666Y-15033809D01*
X15906666Y-15271904D01*
X15859047Y-15367142D01*
X15811428Y-15414761D01*
X15716190Y-15462380D01*
X15430476Y-15462380D01*
X15335238Y-15414761D01*
X15287619Y-15367142D01*
X2342380Y-19863333D02*
X3056666Y-19863333D01*
X3199523Y-19910952D01*
X3294761Y-20006190D01*
X3342380Y-20149047D01*
X3342380Y-20244285D01*
X2437619Y-19434761D02*
X2390000Y-19387142D01*
X2342380Y-19291904D01*
X2342380Y-19053809D01*
X2390000Y-18958571D01*
X2437619Y-18910952D01*
X2532857Y-18863333D01*
X2628095Y-18863333D01*
X2770952Y-18910952D01*
X3342380Y-19482380D01*
X3342380Y-18863333D01*
X-761904Y3247619D02*
X-761904Y4247619D01*
X-761904Y3771428D02*
X-190476Y3771428D01*
X-190476Y3247619D02*
X-190476Y4247619D01*
X809523Y3247619D02*
X238095Y3247619D01*
X523809Y3247619D02*
X523809Y4247619D01*
X428571Y4104761D01*
X333333Y4009523D01*
X238095Y3961904D01*
X-761904Y-36752380D02*
X-761904Y-35752380D01*
X-761904Y-36228571D02*
X-190476Y-36228571D01*
X-190476Y-36752380D02*
X-190476Y-35752380D01*
X238095Y-35847619D02*
X285714Y-35800000D01*
X380952Y-35752380D01*
X619047Y-35752380D01*
X714285Y-35800000D01*
X761904Y-35847619D01*
X809523Y-35942857D01*
X809523Y-36038095D01*
X761904Y-36180952D01*
X190476Y-36752380D01*
X809523Y-36752380D01*
X29238095Y3247619D02*
X29238095Y4247619D01*
X29238095Y3771428D02*
X29809523Y3771428D01*
X29809523Y3247619D02*
X29809523Y4247619D01*
X30190476Y4247619D02*
X30809523Y4247619D01*
X30476190Y3866666D01*
X30619047Y3866666D01*
X30714285Y3819047D01*
X30761904Y3771428D01*
X30809523Y3676190D01*
X30809523Y3438095D01*
X30761904Y3342857D01*
X30714285Y3295238D01*
X30619047Y3247619D01*
X30333333Y3247619D01*
X30238095Y3295238D01*
X30190476Y3342857D01*
X29238095Y-36752380D02*
X29238095Y-35752380D01*
X29238095Y-36228571D02*
X29809523Y-36228571D01*
X29809523Y-36752380D02*
X29809523Y-35752380D01*
X30714285Y-36085714D02*
X30714285Y-36752380D01*
X30476190Y-35704761D02*
X30238095Y-36419047D01*
X30857142Y-36419047D01*
M02*
