G04 #@! TF.GenerationSoftware,KiCad,Pcbnew,5.1.4-e60b266~84~ubuntu18.04.1*
G04 #@! TF.CreationDate,2019-09-29T09:52:18-04:00*
G04 #@! TF.ProjectId,hotspot,686f7473-706f-4742-9e6b-696361645f70,rev?*
G04 #@! TF.SameCoordinates,Original*
G04 #@! TF.FileFunction,Soldermask,Top*
G04 #@! TF.FilePolarity,Negative*
%FSLAX46Y46*%
G04 Gerber Fmt 4.6, Leading zero omitted, Abs format (unit mm)*
G04 Created by KiCad (PCBNEW 5.1.4-e60b266~84~ubuntu18.04.1) date 2019-09-29 09:52:18*
%MOMM*%
%LPD*%
G04 APERTURE LIST*
%ADD10C,0.100000*%
G04 APERTURE END LIST*
D10*
G36*
X318433Y-38634893D02*
G01*
X408657Y-38652839D01*
X514267Y-38696585D01*
X663621Y-38758449D01*
X663622Y-38758450D01*
X893086Y-38911772D01*
X1088228Y-39106914D01*
X1190675Y-39260237D01*
X1241551Y-39336379D01*
X1347161Y-39591344D01*
X1401000Y-39862012D01*
X1401000Y-40137988D01*
X1347161Y-40408656D01*
X1241551Y-40663621D01*
X1241550Y-40663622D01*
X1088228Y-40893086D01*
X893086Y-41088228D01*
X739763Y-41190675D01*
X663621Y-41241551D01*
X514267Y-41303415D01*
X408657Y-41347161D01*
X318433Y-41365107D01*
X137988Y-41401000D01*
X-137988Y-41401000D01*
X-318433Y-41365107D01*
X-408657Y-41347161D01*
X-514267Y-41303415D01*
X-663621Y-41241551D01*
X-739763Y-41190675D01*
X-893086Y-41088228D01*
X-1088228Y-40893086D01*
X-1241550Y-40663622D01*
X-1241551Y-40663621D01*
X-1347161Y-40408656D01*
X-1401000Y-40137988D01*
X-1401000Y-39862012D01*
X-1347161Y-39591344D01*
X-1241551Y-39336379D01*
X-1190675Y-39260237D01*
X-1088228Y-39106914D01*
X-893086Y-38911772D01*
X-663622Y-38758450D01*
X-663621Y-38758449D01*
X-514267Y-38696585D01*
X-408657Y-38652839D01*
X-318433Y-38634893D01*
X-137988Y-38599000D01*
X137988Y-38599000D01*
X318433Y-38634893D01*
X318433Y-38634893D01*
G37*
G36*
X30318433Y-38634893D02*
G01*
X30408657Y-38652839D01*
X30514267Y-38696585D01*
X30663621Y-38758449D01*
X30663622Y-38758450D01*
X30893086Y-38911772D01*
X31088228Y-39106914D01*
X31190675Y-39260237D01*
X31241551Y-39336379D01*
X31347161Y-39591344D01*
X31401000Y-39862012D01*
X31401000Y-40137988D01*
X31347161Y-40408656D01*
X31241551Y-40663621D01*
X31241550Y-40663622D01*
X31088228Y-40893086D01*
X30893086Y-41088228D01*
X30739763Y-41190675D01*
X30663621Y-41241551D01*
X30514267Y-41303415D01*
X30408657Y-41347161D01*
X30318433Y-41365107D01*
X30137988Y-41401000D01*
X29862012Y-41401000D01*
X29681567Y-41365107D01*
X29591343Y-41347161D01*
X29485733Y-41303415D01*
X29336379Y-41241551D01*
X29260237Y-41190675D01*
X29106914Y-41088228D01*
X28911772Y-40893086D01*
X28758450Y-40663622D01*
X28758449Y-40663621D01*
X28652839Y-40408656D01*
X28599000Y-40137988D01*
X28599000Y-39862012D01*
X28652839Y-39591344D01*
X28758449Y-39336379D01*
X28809325Y-39260237D01*
X28911772Y-39106914D01*
X29106914Y-38911772D01*
X29336378Y-38758450D01*
X29336379Y-38758449D01*
X29485733Y-38696585D01*
X29591343Y-38652839D01*
X29681567Y-38634893D01*
X29862012Y-38599000D01*
X30137988Y-38599000D01*
X30318433Y-38634893D01*
X30318433Y-38634893D01*
G37*
G36*
X33130442Y-23235518D02*
G01*
X33196627Y-23242037D01*
X33366466Y-23293557D01*
X33522991Y-23377222D01*
X33558729Y-23406552D01*
X33660186Y-23489814D01*
X33743448Y-23591271D01*
X33772778Y-23627009D01*
X33856443Y-23783534D01*
X33907963Y-23953373D01*
X33925359Y-24130000D01*
X33907963Y-24306627D01*
X33856443Y-24476466D01*
X33772778Y-24632991D01*
X33743448Y-24668729D01*
X33660186Y-24770186D01*
X33558729Y-24853448D01*
X33522991Y-24882778D01*
X33366466Y-24966443D01*
X33196627Y-25017963D01*
X33130443Y-25024481D01*
X33064260Y-25031000D01*
X32975740Y-25031000D01*
X32909557Y-25024481D01*
X32843373Y-25017963D01*
X32673534Y-24966443D01*
X32517009Y-24882778D01*
X32481271Y-24853448D01*
X32379814Y-24770186D01*
X32296552Y-24668729D01*
X32267222Y-24632991D01*
X32183557Y-24476466D01*
X32132037Y-24306627D01*
X32114641Y-24130000D01*
X32132037Y-23953373D01*
X32183557Y-23783534D01*
X32267222Y-23627009D01*
X32296552Y-23591271D01*
X32379814Y-23489814D01*
X32481271Y-23406552D01*
X32517009Y-23377222D01*
X32673534Y-23293557D01*
X32843373Y-23242037D01*
X32909558Y-23235518D01*
X32975740Y-23229000D01*
X33064260Y-23229000D01*
X33130442Y-23235518D01*
X33130442Y-23235518D01*
G37*
G36*
X15350443Y-21965519D02*
G01*
X15416627Y-21972037D01*
X15586466Y-22023557D01*
X15742991Y-22107222D01*
X15778729Y-22136552D01*
X15880186Y-22219814D01*
X15963448Y-22321271D01*
X15992778Y-22357009D01*
X16076443Y-22513534D01*
X16127963Y-22683373D01*
X16145359Y-22860000D01*
X16127963Y-23036627D01*
X16076443Y-23206466D01*
X15992778Y-23362991D01*
X15963448Y-23398729D01*
X15880186Y-23500186D01*
X15778729Y-23583448D01*
X15742991Y-23612778D01*
X15586466Y-23696443D01*
X15416627Y-23747963D01*
X15350442Y-23754482D01*
X15284260Y-23761000D01*
X15195740Y-23761000D01*
X15129558Y-23754482D01*
X15063373Y-23747963D01*
X14893534Y-23696443D01*
X14737009Y-23612778D01*
X14701271Y-23583448D01*
X14599814Y-23500186D01*
X14516552Y-23398729D01*
X14487222Y-23362991D01*
X14403557Y-23206466D01*
X14352037Y-23036627D01*
X14334641Y-22860000D01*
X14352037Y-22683373D01*
X14403557Y-22513534D01*
X14487222Y-22357009D01*
X14516552Y-22321271D01*
X14599814Y-22219814D01*
X14701271Y-22136552D01*
X14737009Y-22107222D01*
X14893534Y-22023557D01*
X15063373Y-21972037D01*
X15129557Y-21965519D01*
X15195740Y-21959000D01*
X15284260Y-21959000D01*
X15350443Y-21965519D01*
X15350443Y-21965519D01*
G37*
G36*
X-905097Y-20077075D02*
G01*
X-677429Y-20171378D01*
X-472534Y-20308285D01*
X-298285Y-20482534D01*
X-175385Y-20666466D01*
X-161377Y-20687431D01*
X-67075Y-20915097D01*
X-19068Y-21156442D01*
X-19000Y-21156787D01*
X-19000Y-21403213D01*
X-67075Y-21644903D01*
X-161378Y-21872571D01*
X-298285Y-22077466D01*
X-472534Y-22251715D01*
X-677429Y-22388622D01*
X-677430Y-22388623D01*
X-677431Y-22388623D01*
X-905097Y-22482925D01*
X-1146786Y-22531000D01*
X-1393214Y-22531000D01*
X-1634903Y-22482925D01*
X-1862569Y-22388623D01*
X-1862570Y-22388623D01*
X-1862571Y-22388622D01*
X-2067466Y-22251715D01*
X-2241715Y-22077466D01*
X-2378622Y-21872571D01*
X-2472925Y-21644903D01*
X-2521000Y-21403213D01*
X-2521000Y-21156787D01*
X-2520931Y-21156442D01*
X-2472925Y-20915097D01*
X-2378623Y-20687431D01*
X-2364615Y-20666466D01*
X-2241715Y-20482534D01*
X-2067466Y-20308285D01*
X-1862571Y-20171378D01*
X-1634903Y-20077075D01*
X-1393214Y-20029000D01*
X-1146786Y-20029000D01*
X-905097Y-20077075D01*
X-905097Y-20077075D01*
G37*
G36*
X33130443Y-20695519D02*
G01*
X33196627Y-20702037D01*
X33366466Y-20753557D01*
X33522991Y-20837222D01*
X33558729Y-20866552D01*
X33660186Y-20949814D01*
X33743448Y-21051271D01*
X33772778Y-21087009D01*
X33856443Y-21243534D01*
X33907963Y-21413373D01*
X33925359Y-21590000D01*
X33907963Y-21766627D01*
X33856443Y-21936466D01*
X33772778Y-22092991D01*
X33743448Y-22128729D01*
X33660186Y-22230186D01*
X33558729Y-22313448D01*
X33522991Y-22342778D01*
X33366466Y-22426443D01*
X33196627Y-22477963D01*
X33146246Y-22482925D01*
X33064260Y-22491000D01*
X32975740Y-22491000D01*
X32893754Y-22482925D01*
X32843373Y-22477963D01*
X32673534Y-22426443D01*
X32517009Y-22342778D01*
X32481271Y-22313448D01*
X32379814Y-22230186D01*
X32296552Y-22128729D01*
X32267222Y-22092991D01*
X32183557Y-21936466D01*
X32132037Y-21766627D01*
X32114641Y-21590000D01*
X32132037Y-21413373D01*
X32183557Y-21243534D01*
X32267222Y-21087009D01*
X32296552Y-21051271D01*
X32379814Y-20949814D01*
X32481271Y-20866552D01*
X32517009Y-20837222D01*
X32673534Y-20753557D01*
X32843373Y-20702037D01*
X32909557Y-20695519D01*
X32975740Y-20689000D01*
X33064260Y-20689000D01*
X33130443Y-20695519D01*
X33130443Y-20695519D01*
G37*
G36*
X15350443Y-19425519D02*
G01*
X15416627Y-19432037D01*
X15586466Y-19483557D01*
X15742991Y-19567222D01*
X15778729Y-19596552D01*
X15880186Y-19679814D01*
X15963448Y-19781271D01*
X15992778Y-19817009D01*
X16076443Y-19973534D01*
X16127963Y-20143373D01*
X16145359Y-20320000D01*
X16127963Y-20496627D01*
X16076443Y-20666466D01*
X15992778Y-20822991D01*
X15963448Y-20858729D01*
X15880186Y-20960186D01*
X15778729Y-21043448D01*
X15742991Y-21072778D01*
X15586466Y-21156443D01*
X15416627Y-21207963D01*
X15350442Y-21214482D01*
X15284260Y-21221000D01*
X15195740Y-21221000D01*
X15129558Y-21214482D01*
X15063373Y-21207963D01*
X14893534Y-21156443D01*
X14737009Y-21072778D01*
X14701271Y-21043448D01*
X14599814Y-20960186D01*
X14516552Y-20858729D01*
X14487222Y-20822991D01*
X14403557Y-20666466D01*
X14352037Y-20496627D01*
X14334641Y-20320000D01*
X14352037Y-20143373D01*
X14403557Y-19973534D01*
X14487222Y-19817009D01*
X14516552Y-19781271D01*
X14599814Y-19679814D01*
X14701271Y-19596552D01*
X14737009Y-19567222D01*
X14893534Y-19483557D01*
X15063373Y-19432037D01*
X15129557Y-19425519D01*
X15195740Y-19419000D01*
X15284260Y-19419000D01*
X15350443Y-19425519D01*
X15350443Y-19425519D01*
G37*
G36*
X33130442Y-18155518D02*
G01*
X33196627Y-18162037D01*
X33366466Y-18213557D01*
X33522991Y-18297222D01*
X33558729Y-18326552D01*
X33660186Y-18409814D01*
X33743448Y-18511271D01*
X33772778Y-18547009D01*
X33856443Y-18703534D01*
X33907963Y-18873373D01*
X33925359Y-19050000D01*
X33907963Y-19226627D01*
X33856443Y-19396466D01*
X33772778Y-19552991D01*
X33743448Y-19588729D01*
X33660186Y-19690186D01*
X33558729Y-19773448D01*
X33522991Y-19802778D01*
X33366466Y-19886443D01*
X33196627Y-19937963D01*
X33130442Y-19944482D01*
X33064260Y-19951000D01*
X32975740Y-19951000D01*
X32909558Y-19944482D01*
X32843373Y-19937963D01*
X32673534Y-19886443D01*
X32517009Y-19802778D01*
X32481271Y-19773448D01*
X32379814Y-19690186D01*
X32296552Y-19588729D01*
X32267222Y-19552991D01*
X32183557Y-19396466D01*
X32132037Y-19226627D01*
X32114641Y-19050000D01*
X32132037Y-18873373D01*
X32183557Y-18703534D01*
X32267222Y-18547009D01*
X32296552Y-18511271D01*
X32379814Y-18409814D01*
X32481271Y-18326552D01*
X32517009Y-18297222D01*
X32673534Y-18213557D01*
X32843373Y-18162037D01*
X32909558Y-18155518D01*
X32975740Y-18149000D01*
X33064260Y-18149000D01*
X33130442Y-18155518D01*
X33130442Y-18155518D01*
G37*
G36*
X-19000Y-19031000D02*
G01*
X-2521000Y-19031000D01*
X-2521000Y-16529000D01*
X-19000Y-16529000D01*
X-19000Y-19031000D01*
X-19000Y-19031000D01*
G37*
G36*
X16141000Y-18681000D02*
G01*
X14339000Y-18681000D01*
X14339000Y-16879000D01*
X16141000Y-16879000D01*
X16141000Y-18681000D01*
X16141000Y-18681000D01*
G37*
G36*
X33921000Y-17411000D02*
G01*
X32119000Y-17411000D01*
X32119000Y-15609000D01*
X33921000Y-15609000D01*
X33921000Y-17411000D01*
X33921000Y-17411000D01*
G37*
G36*
X30318433Y1365107D02*
G01*
X30408657Y1347161D01*
X30514267Y1303415D01*
X30663621Y1241551D01*
X30663622Y1241550D01*
X30893086Y1088228D01*
X31088228Y893086D01*
X31190675Y739763D01*
X31241551Y663621D01*
X31347161Y408656D01*
X31401000Y137988D01*
X31401000Y-137988D01*
X31347161Y-408656D01*
X31241551Y-663621D01*
X31241550Y-663622D01*
X31088228Y-893086D01*
X30893086Y-1088228D01*
X30739763Y-1190675D01*
X30663621Y-1241551D01*
X30514267Y-1303415D01*
X30408657Y-1347161D01*
X30318433Y-1365107D01*
X30137988Y-1401000D01*
X29862012Y-1401000D01*
X29681567Y-1365107D01*
X29591343Y-1347161D01*
X29485733Y-1303415D01*
X29336379Y-1241551D01*
X29260237Y-1190675D01*
X29106914Y-1088228D01*
X28911772Y-893086D01*
X28758450Y-663622D01*
X28758449Y-663621D01*
X28652839Y-408656D01*
X28599000Y-137988D01*
X28599000Y137988D01*
X28652839Y408656D01*
X28758449Y663621D01*
X28809325Y739763D01*
X28911772Y893086D01*
X29106914Y1088228D01*
X29336378Y1241550D01*
X29336379Y1241551D01*
X29485733Y1303415D01*
X29591343Y1347161D01*
X29681567Y1365107D01*
X29862012Y1401000D01*
X30137988Y1401000D01*
X30318433Y1365107D01*
X30318433Y1365107D01*
G37*
G36*
X318433Y1365107D02*
G01*
X408657Y1347161D01*
X514267Y1303415D01*
X663621Y1241551D01*
X663622Y1241550D01*
X893086Y1088228D01*
X1088228Y893086D01*
X1190675Y739763D01*
X1241551Y663621D01*
X1347161Y408656D01*
X1401000Y137988D01*
X1401000Y-137988D01*
X1347161Y-408656D01*
X1241551Y-663621D01*
X1241550Y-663622D01*
X1088228Y-893086D01*
X893086Y-1088228D01*
X739763Y-1190675D01*
X663621Y-1241551D01*
X514267Y-1303415D01*
X408657Y-1347161D01*
X318433Y-1365107D01*
X137988Y-1401000D01*
X-137988Y-1401000D01*
X-318433Y-1365107D01*
X-408657Y-1347161D01*
X-514267Y-1303415D01*
X-663621Y-1241551D01*
X-739763Y-1190675D01*
X-893086Y-1088228D01*
X-1088228Y-893086D01*
X-1241550Y-663622D01*
X-1241551Y-663621D01*
X-1347161Y-408656D01*
X-1401000Y-137988D01*
X-1401000Y137988D01*
X-1347161Y408656D01*
X-1241551Y663621D01*
X-1190675Y739763D01*
X-1088228Y893086D01*
X-893086Y1088228D01*
X-663622Y1241550D01*
X-663621Y1241551D01*
X-514267Y1303415D01*
X-408657Y1347161D01*
X-318433Y1365107D01*
X-137988Y1401000D01*
X137988Y1401000D01*
X318433Y1365107D01*
X318433Y1365107D01*
G37*
M02*
